<svg width="46" height="46" viewBox="0 0 46 46" fill="none" xmlns="http://www.w3.org/2000/svg">
<path d="M34.9297 38.0463C34.9956 38.0584 35.0276 38.069 35.0692 38.1235C35.1939 38.287 35.3232 38.6033 35.2957 38.8104C35.2543 38.8781 35.2378 38.8815 35.169 38.9154C35.0387 38.8162 34.937 38.6346 34.8612 38.4895C34.8176 38.4062 34.7417 38.243 34.7888 38.149C34.8228 38.0815 34.8661 38.0728 34.9297 38.0463Z" fill="#020302"/>
<path d="M40.1267 32.7652C40.3529 32.7625 41.5055 33.1983 41.7517 33.3004C41.8534 33.3425 41.9338 33.3706 41.9775 33.4778C41.9729 33.547 41.9411 33.5822 41.9007 33.6349C41.6935 33.6883 40.6797 33.2778 40.4242 33.181C40.2912 33.1307 40.1231 33.0767 40.0615 32.9416C40.0646 32.8651 40.0852 32.8287 40.1267 32.7652Z" fill="#020302"/>
<path d="M42.1934 27.5676C42.2567 27.5548 42.3571 27.5467 42.4214 27.5555C42.4651 27.5615 42.5186 27.6012 42.5415 27.6393C42.5754 27.6957 42.574 27.7072 42.5597 27.7673C42.509 27.822 42.4628 27.8455 42.3914 27.8674C42.1956 27.9276 41.9767 27.9326 41.774 27.9616C41.4756 28.0044 41.1797 28.0547 40.8802 28.0928C40.7228 28.1106 40.5909 28.1403 40.4584 28.0351C40.4376 27.9763 40.4416 27.9712 40.4592 27.9107L40.4826 27.9453C40.4799 27.9253 40.4676 27.8933 40.4814 27.8773C40.5068 27.8478 40.5317 27.8204 40.5693 27.807C40.7176 27.7542 40.914 27.7482 41.0717 27.7259L42.1934 27.5676Z" fill="#020302"/>
<path d="M40.4846 30.8801C40.7812 30.9399 42.3638 31.1304 42.4731 31.2414C42.5105 31.2794 42.5269 31.327 42.514 31.3797C42.497 31.4498 42.4488 31.4716 42.3951 31.5089C42.109 31.4817 40.5742 31.2872 40.4246 31.1762C40.3756 31.1398 40.3801 31.1168 40.3726 31.0605C40.3988 30.9837 40.4309 30.9404 40.4846 30.8801Z" fill="#020302"/>
<path d="M41.8193 25.3834C41.8568 25.3802 41.9094 25.3709 41.9459 25.3783C41.9963 25.3885 42.0405 25.4258 42.0568 25.4754C42.0715 25.5205 42.0725 25.5555 42.0556 25.5996C41.9973 25.7522 40.3677 26.2472 40.1426 26.3302L40.0923 26.3438C40.0338 26.3277 39.9957 26.2952 39.9587 26.2454C39.9239 26.1986 39.9203 26.1619 39.9261 26.1064C40.0766 25.9571 41.5372 25.4857 41.8193 25.3834Z" fill="#020302"/>
<path d="M35.9111 18.2316C35.9445 18.2352 35.9914 18.2361 36.0221 18.2488C36.0802 18.2728 36.0867 18.2965 36.1103 18.3496C36.1087 18.6326 35.3511 20.1102 35.1488 20.3745C35.0996 20.3655 35.041 20.353 35.0004 20.3218C34.9652 20.2948 34.9493 20.2575 34.9459 20.2146C34.9341 20.061 35.7666 18.3955 35.9111 18.2316Z" fill="#020302"/>
<path d="M37.8539 19.4178C37.9324 19.4311 37.9745 19.4492 38.036 19.4999C38.0524 19.5353 38.0682 19.5564 38.0669 19.5965C38.0632 19.7155 36.8925 21.0671 36.7082 21.2573C36.6601 21.2578 36.5952 21.2468 36.5565 21.214C36.5142 21.1781 36.4931 21.1434 36.4947 21.0868C36.4998 20.9144 37.6617 19.5858 37.8539 19.4178Z" fill="#020302"/>
<path d="M27.4477 17.243C27.484 17.2494 27.5298 17.248 27.558 17.2737C27.6248 17.3343 27.666 17.4633 27.6978 17.5475C27.7781 17.7598 28.3235 19.4418 28.3132 19.54C28.3063 19.6062 28.2591 19.6317 28.2133 19.6718C28.1675 19.6659 28.1294 19.6516 28.0864 19.6351C28.0564 19.6066 28.0348 19.582 28.0171 19.544C27.9045 19.3021 27.356 17.6182 27.3311 17.3887C27.3466 17.3174 27.3945 17.2872 27.4477 17.243Z" fill="#020302"/>
<path d="M37.0716 36.6956C37.126 36.7086 37.175 36.7214 37.2219 36.7537C37.4517 36.9121 38.4882 37.9702 38.5034 38.212C38.5089 38.2994 38.4496 38.3554 38.3938 38.4121C38.3438 38.4034 38.2837 38.3952 38.2403 38.3677C38.1323 38.299 37.2214 37.3012 37.0919 37.1384C37.0395 37.0725 36.9701 36.9918 36.9585 36.906C36.948 36.8274 37.0236 36.7487 37.0716 36.6956Z" fill="#020302"/>
<path d="M30.9689 39.3227C31.0483 39.329 31.0851 39.3298 31.1488 39.379C31.2277 39.6134 31.3118 41.3517 31.2744 41.5916C31.261 41.6778 31.2352 41.7108 31.1659 41.7616C31.1276 41.7521 31.0624 41.7461 31.0339 41.7187C30.9118 41.6012 30.8518 39.9713 30.846 39.6953C30.8424 39.5264 30.8469 39.4492 30.9689 39.3227Z" fill="#020302"/>
<path d="M29.5722 16.7754C29.6207 16.7737 29.6668 16.7776 29.7151 16.7818C29.7673 16.8219 29.7853 16.843 29.8036 16.9071C29.8853 17.194 30.0977 19.0395 29.9912 19.2508C29.9298 19.2539 29.8469 19.2654 29.7884 19.249C29.7485 19.2378 29.728 19.2207 29.7128 19.1818C29.691 19.1257 29.5142 17.1844 29.5161 17.0186C29.5172 16.9257 29.5306 16.8585 29.5722 16.7754Z" fill="#020302"/>
<path d="M32.7649 39.0076C32.8122 39.0067 32.8577 39.0099 32.9048 39.0134C32.9591 39.0485 32.9846 39.0652 33.0078 39.1268C33.1046 39.3839 33.1413 39.6917 33.1951 39.9614C33.2658 40.3164 33.3466 40.6667 33.4314 41.0185C33.4771 41.2086 33.5222 41.3184 33.4137 41.4959C33.3546 41.5033 33.295 41.5149 33.2415 41.4804C33.1544 41.4241 33.1138 41.2389 33.0877 41.1408C32.9829 40.748 32.6813 39.5227 32.7099 39.1507C32.7142 39.0955 32.7378 39.0547 32.7649 39.0076Z" fill="#020302"/>
<path d="M20.9807 22.3578C21.038 22.3634 21.0908 22.3804 21.1427 22.405C21.3906 22.5221 23.0999 23.7344 23.1589 23.8992C23.1377 23.9729 23.0907 24.0232 23.0432 24.0815L23.0309 24.0905C22.9452 24.0899 22.8811 24.0545 22.8088 24.0106C22.4171 23.7727 22.0561 23.4515 21.6862 23.1779C21.4584 23.0093 21.1987 22.86 20.9855 22.6768C20.9411 22.6387 20.906 22.6157 20.9009 22.5519C20.895 22.4784 20.9419 22.4152 20.9807 22.3578Z" fill="#020302"/>
<path d="M22.2858 20.926C22.3362 20.9268 22.3706 20.9259 22.4163 20.9498C22.6029 21.0477 23.2523 21.7149 23.4475 21.8961C23.6746 22.107 23.9239 22.3056 24.1395 22.5273C24.1891 22.5783 24.2165 22.6029 24.2352 22.6726C24.2153 22.7585 24.1778 22.8155 24.1289 22.8882C24.063 22.8851 24.0227 22.8668 23.9702 22.8292C23.7226 22.6517 22.2202 21.2823 22.1938 21.1053C22.2092 21.0282 22.2381 20.9875 22.2858 20.926Z" fill="#020302"/>
<path d="M33.3878 35.1491C33.4613 35.1451 33.5138 35.1406 33.583 35.1724C33.7253 35.3126 34.7705 37.4594 34.8273 37.6745C34.818 37.7502 34.7778 37.7858 34.7286 37.8391C34.6891 37.8443 34.6305 37.851 34.597 37.8301C34.5554 37.804 34.5368 37.774 34.5131 37.7325C34.3829 37.5043 33.3176 35.4636 33.3083 35.2857C33.3049 35.2202 33.3474 35.1927 33.3878 35.1491Z" fill="#020302"/>
<path d="M33.2266 29.9115C33.2337 29.91 33.2408 29.9071 33.2481 29.9068C33.3946 29.9014 33.7674 29.9901 33.9395 30.0104C34.7052 30.1007 35.4736 30.1747 36.2378 30.2772C37.0494 30.3925 37.8596 30.517 38.6683 30.6508C38.8307 30.6765 39.3398 30.7206 39.4445 30.7853C39.4663 30.7987 39.4791 30.8231 39.4964 30.842C39.5145 30.9137 39.5037 30.955 39.4841 31.0234C39.419 31.0564 39.3641 31.0637 39.2922 31.0591C38.7236 31.0234 38.1253 30.8692 37.5631 30.7668C36.141 30.5077 34.7278 30.2073 33.3067 29.9449L33.3057 29.9313L33.2642 29.9276L33.259 29.9382L33.2266 29.9115Z" fill="#020302"/>
<path d="M40.5738 22.4634C40.6412 22.4811 40.6712 22.4921 40.7237 22.5416C40.7355 22.5765 40.7511 22.5997 40.7416 22.6371C40.7131 22.749 40.5911 22.8417 40.5032 22.907C40.3181 23.0447 40.1029 23.1544 39.9042 23.2717L38.9483 23.8454C38.1296 24.3371 37.3068 24.8217 36.4798 25.2992C35.648 25.7748 34.8058 26.2364 33.9955 26.7481C33.9627 26.7718 33.9642 26.7804 33.9219 26.7771C33.9294 26.768 33.9371 26.759 33.9445 26.7497C34.1088 26.5431 34.6093 26.2425 34.839 26.0844C36.3942 25.0143 38.0027 24.0275 39.6124 23.0414C39.906 22.8616 40.2397 22.5505 40.5738 22.4634Z" fill="#020302"/>
<path d="M39.4818 24.013C39.5607 24.0081 39.6092 24.0068 39.6814 24.0408C39.7015 24.0712 39.7189 24.082 39.7136 24.1205C39.695 24.257 39.5075 24.3819 39.3969 24.4521C38.9724 24.7215 38.4634 24.9385 38.0156 25.1762C37.4202 25.4982 36.823 25.8171 36.2242 26.1329C35.8425 26.333 35.4502 26.5127 35.0715 26.7182C34.5218 27.0166 33.9979 27.3491 33.4788 27.697C33.4255 27.7284 33.4126 27.7466 33.3499 27.7377C33.296 27.6633 33.3062 27.5365 33.3013 27.4465C34.5182 26.6392 35.7901 25.9826 37.0772 25.2995C37.8794 24.8737 38.6715 24.4221 39.4818 24.013Z" fill="#020302"/>
<path d="M31.1219 31.2767C31.2866 31.4251 32.6911 33.9933 32.7113 34.1953C32.7175 34.2569 32.6994 34.297 32.6615 34.3446C32.6024 34.3705 32.5909 34.3741 32.5271 34.3675C32.2654 34.186 31.766 33.0479 31.5966 32.72C31.803 33.8256 32.0317 34.9266 32.2825 36.0229C32.3616 36.3873 32.7847 37.8861 32.7383 38.1267C32.6994 38.1718 32.6728 38.2034 32.6103 38.2119C32.5557 38.2193 32.5153 38.2124 32.4707 38.1824C32.1952 37.687 31.0878 31.9666 31.1219 31.2767Z" fill="#020302"/>
<path d="M32.9031 33.0966C32.9696 33.0965 33.0112 33.0968 33.0698 33.1344C33.1493 33.1854 33.2135 33.2837 33.2621 33.3635C33.5968 33.9133 33.8792 34.5054 34.2011 35.0649C34.419 35.4437 34.678 35.7966 34.8944 36.1763C35.4116 37.0837 35.8481 38.0368 36.3657 38.9457C36.4812 39.1487 36.9481 39.8524 36.9729 40.0438C36.9848 40.1357 36.937 40.1897 36.8837 40.2565C36.8196 40.2585 36.7621 40.2594 36.7081 40.2197C36.6554 40.1809 35.3433 37.9055 35.1807 37.6158C34.8262 36.9847 34.5026 36.3345 34.1508 35.7013C33.7495 34.9789 33.3145 34.2647 32.9439 33.5268C32.9 33.4394 32.834 33.3214 32.8311 33.2237C32.8293 33.1622 32.8653 33.1397 32.9031 33.0966Z" fill="#020302"/>
<path d="M39.0544 26.3285C39.0968 26.3225 39.1516 26.3151 39.1941 26.3241C39.2621 26.3386 39.2871 26.3756 39.3255 26.4276C39.3346 26.4853 39.3433 26.5013 39.3056 26.5508C39.2654 26.6033 39.1696 26.6394 39.1094 26.659C38.9232 26.7195 38.7289 26.7559 38.5417 26.8146C37.0963 27.28 35.6434 27.721 34.1831 28.1375C33.6721 28.2885 33.1764 28.4912 32.6643 28.636C32.365 28.7205 32.064 28.7773 31.7568 28.8222C32.1238 28.5868 32.51 28.3867 32.8951 28.1833C33.3287 27.9577 33.7759 27.7577 34.2124 27.5374C34.595 27.3415 34.9789 27.1482 35.3642 26.9576C35.5464 26.8675 35.7422 26.747 35.9388 26.6969C35.9878 26.707 36.0052 26.7147 36.0439 26.7496C36.0991 26.7995 36.1079 26.8434 36.1092 26.9151C36.0087 27.1434 35.2399 27.4406 34.9747 27.6047C35.4097 27.4618 35.8411 27.3101 36.2793 27.1766C36.7771 27.0249 37.2806 26.891 37.7781 26.7383C38.2047 26.6074 38.6225 26.4408 39.0544 26.3285Z" fill="#020302"/>
<path d="M35.7498 21.939C35.7855 21.9406 35.8358 21.9385 35.8691 21.95C35.9291 21.9707 35.9358 21.9915 35.9594 22.0443C35.9571 22.1184 35.9338 22.1653 35.8962 22.2285C35.5474 22.8155 35.1358 23.367 34.7615 23.9381C34.3391 24.5823 33.9491 25.247 33.5258 25.89C33.2943 26.2418 33.016 26.5791 32.8142 26.9478C33.1683 26.5589 33.5674 26.236 33.9532 25.8805C34.1638 25.6864 34.3577 25.4626 34.5801 25.2831C34.6228 25.2486 34.6702 25.2099 34.7269 25.2032C34.7836 25.1964 34.8394 25.2252 34.8792 25.2632C34.9137 25.2962 34.9544 25.3592 34.949 25.4079C34.9437 25.4553 34.9218 25.49 34.8882 25.5224C34.4879 25.9091 34.041 26.2629 33.6297 26.6405C32.9274 27.2827 32.1898 27.8814 31.417 28.4367C31.6732 27.9817 32.0318 27.5937 32.3177 27.1579C32.9738 26.1577 33.5791 25.1279 34.2269 24.1235C34.5097 23.6852 34.8223 23.2633 35.1161 22.832C35.3028 22.5579 35.4961 22.1504 35.7498 21.939Z" fill="#020302"/>
<path d="M39.5242 27.8366C39.5433 27.8342 39.581 27.8285 39.5993 27.8308C39.6424 27.8362 39.6749 27.869 39.6874 27.9097C39.7045 27.9648 39.689 28.0024 39.6546 28.0451C39.5881 28.1277 39.4233 28.1778 39.3246 28.2051C39.0328 28.2858 38.7223 28.3317 38.4251 28.3918L36.4724 28.7792C35.6048 28.953 34.7445 29.1906 33.8681 29.3153C34.4784 29.4166 35.1284 29.4052 35.7455 29.4247C35.9741 29.432 36.2336 29.4166 36.458 29.4618C36.5407 29.4785 36.6649 29.5196 36.701 29.6054C36.7252 29.663 36.7114 29.6865 36.6875 29.7378C36.4605 29.9162 35.61 29.7998 35.303 29.7794C34.2638 29.7186 33.2413 29.5582 32.2173 29.3762C33.1346 29.1308 34.0746 28.9565 35.0018 28.7527C36.0986 28.5116 37.1913 28.2856 38.2944 28.0749C38.7045 27.9966 39.1122 27.9044 39.5242 27.8366Z" fill="#020302"/>
<path d="M24.0417 24.4697C24.3415 24.6096 24.7339 24.9757 25.0075 25.1855C25.4962 25.5602 26.0037 25.9139 26.4802 26.304C26.9814 26.7143 27.4456 27.1601 27.9202 27.5997C28.3829 28.0284 28.8294 28.4238 29.2086 28.9342C28.9669 28.7841 28.7468 28.6259 28.4851 28.5081C27.9777 28.2797 27.4189 28.1661 26.8863 28.0105C26.2648 27.8289 25.6508 27.621 25.0289 27.4392C24.8282 27.3779 23.6126 27.0759 23.5484 27.006C23.5245 26.9799 23.5308 26.9406 23.5317 26.9072C23.5338 26.8341 23.5512 26.7749 23.6043 26.7232C23.8622 26.6503 26.5305 27.5708 27.0151 27.7236C27.2689 27.8036 27.5277 27.8669 27.7856 27.9321C27.1581 27.359 26.531 26.7899 25.8657 26.2603C25.3032 25.8126 24.712 25.4026 24.1527 24.9501C24.0571 24.8727 23.9265 24.7864 23.913 24.6587C23.9401 24.581 23.9881 24.5308 24.0417 24.4697Z" fill="#020302"/>
<path d="M32.0132 30.0302C32.4054 30.0017 32.9784 30.1848 33.3644 30.2989C33.8859 30.4531 34.3822 30.6668 34.895 30.8436C35.3076 30.9858 35.7246 31.1137 36.1366 31.2588C36.7776 31.4845 37.4135 31.7297 38.0514 31.9645C38.316 32.0618 38.9124 32.2403 39.1196 32.3818C39.1771 32.4211 39.2024 32.4642 39.213 32.5335C39.1977 32.585 39.1923 32.6176 39.1436 32.6494C39.1327 32.6565 39.1204 32.6618 39.1079 32.6659C39.0273 32.6924 38.9189 32.6419 38.8426 32.6152C38.3946 32.4584 37.9565 32.2657 37.5128 32.0966C36.6231 31.752 35.725 31.4308 34.8186 31.133C34.2877 30.9486 33.7646 30.775 33.2195 30.6358C33.671 30.9726 34.1309 31.3022 34.6189 31.5847C34.9653 31.7853 36.6971 32.6456 36.8064 32.8086C36.8193 32.8736 36.8182 32.9079 36.8037 32.9706C36.7687 32.9988 36.7654 33.009 36.7184 33.0145C36.3908 33.053 33.6489 31.3409 33.2604 31.0597C32.8228 30.7429 32.4316 30.3705 32.0132 30.0302Z" fill="#020302"/>
<path d="M28.5287 20.3982C28.5582 20.4092 28.5874 20.4247 28.6159 20.4381C28.8542 20.7845 29.5384 24.4499 29.6997 25.2157C29.8048 25.7146 29.9382 26.2072 30.0346 26.7079C30.1177 27.1393 30.1964 27.6227 30.2566 28.0584C29.9916 27.5659 29.8656 27.0029 29.6168 26.498C29.1 25.4491 28.3309 24.5476 27.6234 23.6252C27.4048 23.3187 26.4038 22.1965 26.371 21.9725C26.3621 21.9114 26.3732 21.8592 26.4154 21.8124C26.4416 21.7835 26.4974 21.7621 26.5368 21.769C26.6004 21.7802 26.6553 21.8396 26.6968 21.8842C26.9413 22.1467 27.1486 22.4624 27.3715 22.7442C27.7855 23.2675 28.2135 23.7743 28.6035 24.3165C28.892 24.7175 29.1619 25.1241 29.4252 25.5419C29.2209 24.3777 28.9602 23.2173 28.713 22.0614C28.6317 21.6814 28.4151 20.9123 28.4174 20.5644C28.4179 20.4955 28.4834 20.4439 28.5287 20.3982Z" fill="#020302"/>
<path d="M32.9879 16.9299L33.0979 16.9365C33.1527 16.9717 33.1693 16.9801 33.1911 17.045C33.2119 17.1068 33.198 17.2003 33.188 17.263C33.1633 17.4188 33.1081 17.5722 33.0746 17.7268C32.9016 18.5261 32.6798 19.3158 32.4793 20.1088C32.0358 21.8628 31.6242 23.6372 31.0803 25.3637C30.9834 25.6712 30.8589 25.9756 30.6991 26.2558C30.5789 25.7732 30.531 25.2655 30.4506 24.7749L29.8951 21.3432C29.8515 21.0564 29.7831 20.7464 29.7775 20.4569C29.7758 20.3687 29.786 20.2407 29.8619 20.1809C29.9112 20.1421 29.9327 20.1465 29.9869 20.1609C30.0293 20.2079 30.0519 20.2464 30.0679 20.3082C30.1403 20.5887 30.1426 20.9058 30.1882 21.1937C30.3147 21.9932 30.4534 22.7898 30.5731 23.5907C30.6487 24.0963 30.6843 24.6532 30.8266 25.1435C31.1528 24.1569 31.379 23.1455 31.6288 22.1378C31.8706 21.1627 32.1328 20.1925 32.3688 19.216L32.7176 17.8331C32.7765 17.597 32.8172 17.3513 32.8876 17.1191C32.9104 17.0443 32.9384 16.9903 32.9879 16.9299Z" fill="#020302"/>
<path d="M31.8022 30.7914C32.1301 30.9286 32.4047 31.1862 32.7011 31.3783C32.9925 31.5672 33.3039 31.7315 33.6033 31.9078C33.962 32.1225 34.3148 32.3464 34.6617 32.5796C35.9721 33.4562 37.2186 34.4183 38.4757 35.368C39.0048 35.7677 39.6639 36.1872 40.1544 36.6087C40.2045 36.6518 40.2539 36.7044 40.2815 36.7653C40.299 36.8037 40.3035 36.8471 40.2831 36.8847C40.2491 36.9474 40.1795 36.9831 40.111 36.9961C40.0467 37.0083 40.0049 36.984 39.9527 36.9502C39.6541 36.757 39.3784 36.4897 39.0912 36.2747C38.5959 35.9039 38.0905 35.5427 37.6054 35.1586C36.8883 34.5907 36.1926 34.0031 35.447 33.4709C34.9485 33.0775 34.4309 32.6953 33.9005 32.3458C33.5457 32.1121 33.1755 31.9029 32.8262 31.6606C33.1126 32.1009 33.5336 32.4879 33.8727 32.8914C34.309 33.4107 34.7125 33.9573 35.1448 34.48L36.0629 35.5714C36.1917 35.7219 36.3329 35.8638 36.4573 36.0177C36.5016 36.0726 36.5701 36.1615 36.5783 36.2345C36.5851 36.295 36.5739 36.3026 36.5372 36.3461C36.4752 36.3682 36.4351 36.3753 36.3693 36.3749C36.1395 36.2635 33.8512 33.4014 33.4315 32.8993C33.1635 32.5786 32.8657 32.2809 32.6079 31.952C32.3177 31.5802 32.0491 31.1933 31.8022 30.7914Z" fill="#020302"/>
<path d="M23.9998 18.8795C24.0412 18.8868 24.0843 18.8925 24.1221 18.9125C24.3074 19.0106 25.9162 21.4006 26.1776 21.7934C26.3935 22.1177 26.5909 22.459 26.8158 22.7765C27.0551 23.1142 27.6132 23.6255 27.7293 23.9983C27.5387 23.8396 27.2369 23.2948 27.0238 23.0625L27.0105 23.0731C27.1645 23.413 27.3906 23.7414 27.5769 24.066C27.9194 24.666 28.2564 25.2692 28.5877 25.8755C28.9872 26.6016 29.4126 27.313 29.6298 28.1202C29.2962 27.8251 29.0377 27.4508 28.7209 27.1379C28.1747 26.5984 27.5715 26.1046 26.9957 25.5963C26.4263 25.1058 25.855 24.6139 25.2939 24.114C25.0913 23.9335 24.8348 23.7471 24.6676 23.5363C24.664 23.5036 24.6554 23.4897 24.6741 23.4602C24.7148 23.3959 24.7729 23.3601 24.8461 23.3433C25.0602 23.4081 27.9672 26.0007 28.4096 26.39C28.1384 25.7269 27.7805 25.1394 27.4241 24.521C26.9625 23.7199 26.4988 22.9276 25.9972 22.1503C25.7229 21.7253 24.0022 19.3658 23.9496 19.1149C23.9288 19.0161 23.9517 18.962 23.9998 18.8795Z" fill="#020302"/>
<path d="M32.7636 19.7763C32.8151 19.7778 32.8805 19.7746 32.931 19.7854C32.9934 19.7989 33.0013 19.8159 33.0327 19.8653C33.034 19.9879 32.7526 20.9597 32.7007 21.1557C32.5433 21.7496 32.4173 22.3524 32.2548 22.9443C32.0029 23.8621 31.6933 24.76 31.4158 25.6695C31.3317 25.9452 31.2817 26.2276 31.1994 26.5025C31.2398 26.473 31.2544 26.4343 31.273 26.3893C31.3432 26.2205 31.3739 26.0301 31.4363 25.8569C31.5365 25.5789 32.4341 23.1959 32.4966 23.1463C32.5263 23.1227 32.5874 23.123 32.6235 23.1301C32.6895 23.143 32.7694 23.1758 32.8041 23.2367C32.876 23.3627 31.9533 25.3864 31.8544 25.71L31.8468 25.7358C32.463 24.5941 33.137 23.487 33.7449 22.34C33.8833 22.0806 34.0188 21.8173 34.1713 21.5659C34.2344 21.462 34.3163 21.324 34.441 21.2933C34.4751 21.2994 34.4975 21.2979 34.5254 21.3208C34.5726 21.3594 34.5886 21.4026 34.5914 21.4628C34.5983 21.6162 31.8159 26.4113 31.4934 26.923C31.2708 27.2763 31.0315 27.6357 30.7472 27.9423C30.7409 27.6336 30.7838 27.1059 30.8541 26.8046C30.9785 26.2706 31.2937 25.749 31.4307 25.2063C31.766 23.8779 32.0267 22.5339 32.3658 21.2065C32.488 20.728 32.6068 20.2449 32.7636 19.7763Z" fill="#020302"/>
<path d="M18.9686 25.8433C20.7699 26.4332 22.5037 27.104 24.2753 27.7698C24.9218 28.0127 25.5761 28.2363 26.2237 28.477C27.0897 28.799 28.1243 29.0343 28.9379 29.4229C27.8167 29.4244 26.6761 29.659 25.6068 29.9878C25.3776 30.0583 25.147 30.1274 24.9208 30.2073C24.7681 30.2613 24.5958 30.3479 24.4364 30.3741C24.3807 30.3832 24.3739 30.3729 24.3294 30.343C24.2803 30.2633 24.2732 30.1797 24.26 30.0892C24.7518 29.8427 25.3539 29.7178 25.8788 29.546C25.3843 29.4327 24.8411 29.4189 24.3352 29.3679C23.4397 29.2815 22.547 29.1723 21.657 29.0404C21.1816 29.0104 19.513 28.7783 19.1417 28.6447C19.0816 28.623 19.0759 28.6203 19.0504 28.5651C19.0587 28.5069 19.069 28.4545 19.109 28.4083C19.1274 28.387 19.1498 28.3724 19.1754 28.3613C19.3076 28.3038 20.2531 28.5009 20.455 28.529C21.5747 28.6846 22.7004 28.7987 23.818 28.9684C24.8483 29.1249 25.8986 29.3513 26.9372 29.4236C27.2086 29.4426 27.4762 29.4145 27.7455 29.3852C27.5252 29.2873 27.2854 29.2202 27.0564 29.1441C26.642 29.0053 26.226 28.8716 25.8084 28.7431L22.7036 27.7707C22.207 27.6158 21.6936 27.4951 21.2053 27.3144C21.1412 27.2907 21.0859 27.2674 21.0407 27.2145C21.0306 27.1438 21.0524 27.1001 21.0794 27.037C21.1629 26.9795 21.314 27.0118 21.4154 27.0177C20.8984 26.892 20.398 26.7028 19.8949 26.5314C19.5988 26.4305 19.2134 26.344 18.95 26.1748C18.9032 26.1448 18.8652 26.1039 18.8613 26.0454C18.8554 25.9579 18.9085 25.8972 18.9686 25.8433Z" fill="#020302"/>
<path d="M13.9554 3.73765C14.021 3.73126 14.085 3.73236 14.1358 3.78141C14.2014 3.84483 14.2053 3.94007 14.2145 4.02471C14.274 4.57227 14.3622 5.11735 14.4365 5.66311L15.1169 10.4414L17.1537 25.1016L17.8377 29.6725C17.9485 30.3916 18.112 31.12 18.1784 31.8437C20.2541 31.4781 22.3322 31.1265 24.4126 30.789C25.568 30.5932 26.7197 30.3427 27.878 30.1711C28.0669 30.1431 28.258 30.1447 28.4464 30.1193C28.5927 30.0995 28.7778 30.0317 28.9222 30.0626L28.9273 30.1017C28.8289 30.297 28.587 30.4657 28.4252 30.6121C28.4437 30.8433 28.474 31.0695 28.5318 31.2943C28.7521 31.0932 28.9167 30.865 29.1703 30.6975C29.0459 31.0691 28.8195 31.3953 28.5589 31.6833C28.6083 32.1487 28.6886 32.6296 28.7798 33.0887C28.8944 32.8495 28.9661 32.5905 29.0666 32.345C29.1713 32.0895 29.3159 31.8509 29.4669 31.6207C29.4186 32.1616 29.2998 32.6748 29.1494 33.1954C29.0828 33.4258 28.9703 33.6728 28.939 33.9094C28.8781 34.3698 29.126 35.5057 29.2207 36.0228C29.3488 35.5535 29.4039 35.0483 29.4952 34.5696C29.6367 33.8281 29.8189 33.089 30.0039 32.3574C30.1121 31.9296 30.2072 31.4871 30.3564 31.0716C30.4315 31.502 30.4558 31.9441 30.512 32.378C30.6924 33.769 30.841 35.1541 30.9804 36.5496L31.0954 37.698C31.1103 37.8522 31.1498 38.0452 31.1326 38.1984C31.1215 38.298 31.0932 38.3734 31.0148 38.438C30.9706 38.4443 30.9505 38.4519 30.9129 38.4203C30.8376 38.3571 30.8131 38.274 30.7958 38.1814C30.6893 37.61 30.6727 36.9937 30.6199 36.4139C30.5114 35.2246 30.4072 34.036 30.2306 32.8544C30.1068 33.199 30.044 33.5771 29.971 33.9354C29.8207 34.6555 29.6936 35.3798 29.5896 36.1081C29.55 36.3695 29.4748 36.6724 29.4735 36.9355C29.4728 37.0797 29.5499 37.2179 29.5596 37.3618C29.5826 37.7067 28.9547 38.2904 28.727 38.5569C28.6749 38.6217 28.6284 38.6851 28.5967 38.7624C28.4674 39.0773 28.4122 39.4373 28.3306 39.7684C28.2504 40.0939 28.1538 40.4157 28.0777 40.7422C28.0274 40.9581 28.0045 41.2309 27.9012 41.4258C27.8672 41.4898 27.8301 41.499 27.7632 41.5182C27.7011 41.504 27.6754 41.4903 27.6291 41.4464C27.5254 41.1883 28.0496 39.4768 28.1419 39.0765L27.9024 39.182C27.841 39.454 27.8015 39.7898 27.6773 40.0389C27.633 40.0809 27.5986 40.0993 27.5353 40.0989C27.4739 40.0985 27.4425 40.0763 27.4008 40.0351C27.3562 39.8909 27.5403 39.4121 27.5902 39.25C26.4374 39.5015 25.2606 39.6717 24.0986 39.8788C20.6114 40.4835 17.1163 41.0392 13.6134 41.5459C12.9615 41.6427 8.35064 42.356 8.17235 42.2238C8.02119 41.9265 7.83736 40.0857 7.77874 39.6284L7.46469 37.2994L4.80545 17.3433L3.74135 9.54189C3.66776 8.95054 3.58976 8.35977 3.50736 7.76959C3.45191 7.37149 3.36957 6.95825 3.36328 6.55697C3.5286 6.35414 4.92742 5.26623 5.1589 5.17369C5.44033 5.06116 5.77958 5.02859 6.07773 4.97585C6.7134 4.86546 7.35001 4.76082 7.98754 4.66194L11.3757 4.121C12.2348 3.98423 13.0911 3.83903 13.9554 3.73765Z" fill="#020302"/>
<path d="M28.0693 30.9262C28.1768 31.4124 28.223 31.9267 28.2935 32.4205C28.4183 33.3172 28.5528 34.2124 28.6969 35.1062C28.7574 35.5024 28.8328 35.8958 28.923 36.2862C29.0146 36.6732 29.1331 37.066 29.1862 37.46C28.9868 37.7944 28.6903 38.085 28.4307 38.3747C28.4096 38.3991 28.3855 38.4209 28.3624 38.4434C28.2822 38.3056 27.6956 33.7411 27.6039 33.0812C27.5386 32.6119 27.4576 32.145 27.395 31.6751C27.6065 31.4143 27.856 31.1862 28.0693 30.9262Z" fill="#FEFEFE"/>
<path d="M28.3404 35.5223C28.3587 35.535 28.3684 35.5402 28.3835 35.5591C28.5249 35.7367 28.7203 37.2463 28.672 37.5001C28.639 37.4797 28.6186 37.4648 28.5981 37.4307C28.4658 37.2106 28.2864 35.7839 28.3404 35.5223Z" fill="#020302"/>
<path d="M27.8673 31.3654C27.9074 31.3801 27.9224 31.3815 27.9421 31.423C28.0629 31.6779 28.3017 33.4947 28.2254 33.7526C28.2085 33.7212 28.1943 33.6931 28.1826 33.6593C28.0553 33.2922 27.8212 31.9249 27.8242 31.5359C27.8248 31.4685 27.8359 31.4245 27.8673 31.3654Z" fill="#020302"/>
<path d="M13.4507 4.16489L13.4591 4.16871L13.4668 4.19386C13.2934 4.3906 12.8159 4.90623 12.5925 4.99886C12.3044 5.11826 11.262 5.21345 10.8709 5.27683L4.25038 6.3192L4.23193 6.29292C4.23567 6.28641 4.23876 6.27949 4.24313 6.27342C4.31672 6.17127 5.19019 5.53702 5.32051 5.49124C5.60774 5.39026 5.93608 5.36897 6.23611 5.31713C6.87703 5.20099 7.51938 5.0934 8.16317 4.99436C9.30862 4.8033 10.4551 4.61891 11.6027 4.44121C12.2172 4.34474 12.8329 4.236 13.4507 4.16489Z" fill="#FEFEFE"/>
<path d="M27.9617 30.5115C27.94 30.6045 27.2445 31.3164 27.1305 31.4174C26.8128 31.4347 26.489 31.5005 26.1749 31.552L24.3436 31.8686C23.0433 32.0874 21.7351 32.2551 20.4355 32.4768C19.3735 32.658 18.3194 32.9028 17.25 33.0389C17.5367 32.8204 17.8306 32.6231 18.0654 32.3465C18.0966 32.3059 18.1213 32.2745 18.1689 32.2527C18.3407 32.1739 18.6015 32.1597 18.7899 32.1247C19.4015 32.0107 20.0106 31.8982 20.6265 31.8093C20.4116 31.9043 20.0533 31.9462 19.8992 32.1316L19.9033 32.1685C19.9348 32.1751 19.9348 32.1764 19.9722 32.1769C20.0737 32.178 21.0303 31.9276 21.0779 31.8726C20.9708 31.7845 20.7646 31.8053 20.631 31.8006C21.9601 31.5334 23.3135 31.3699 24.6501 31.1435C25.7581 30.9558 26.8542 30.6978 27.9617 30.5115Z" fill="#FEFEFE"/>
<path d="M24.0175 31.4088C24.0821 31.4219 24.0918 31.4205 24.1369 31.4673L24.1244 31.501C23.8044 31.6909 22.4702 31.8369 22.0512 31.8487C22.0168 31.8478 21.9881 31.8426 21.9546 31.8359L21.9536 31.8029C22.2032 31.6298 23.6471 31.439 24.0175 31.4088Z" fill="#020302"/>
<path d="M13.8351 4.28439C13.8625 4.31035 13.8747 4.33869 13.8818 4.37549C14.0149 5.06396 14.0786 5.76555 14.1739 6.45977L14.6316 9.61544C15.3611 14.6551 16.0645 19.6984 16.7417 24.7453C16.9818 26.4466 17.2382 28.1454 17.5109 29.8418C17.6248 30.5894 17.7586 31.3379 17.8507 32.0883C17.5553 32.3775 17.218 32.6344 16.8993 32.898C16.8675 32.9207 16.8483 32.9302 16.8096 32.9366C16.7297 32.7637 16.6996 32.2892 16.6662 32.0796C16.4364 30.6358 16.2626 29.1859 16.055 27.7393L12.9189 5.2657C13.2321 4.94595 13.5214 4.60396 13.8351 4.28439Z" fill="#FEFEFE"/>
<path d="M17.2604 30.2278C17.2795 30.2442 17.2943 30.2608 17.3073 30.2825C17.4929 30.5943 17.6089 31.5492 17.5293 31.913C17.5136 31.9187 17.4955 31.9265 17.4786 31.9271C17.4254 31.929 17.3919 31.9152 17.3567 31.8762C17.2035 31.7067 17.2673 30.5133 17.2604 30.2278Z" fill="#020302"/>
<path d="M14.1835 11.0315C14.1943 11.0359 14.2053 11.0398 14.2159 11.0448C14.3782 11.1219 14.457 11.3373 14.5154 11.4973C14.6445 11.8513 14.8884 12.6292 14.7232 12.9864C14.685 12.9979 14.6742 12.9962 14.6361 12.9902C14.6149 12.9695 14.596 12.9507 14.58 12.9255C14.4142 12.664 14.1765 11.5888 14.1512 11.2679C14.1447 11.1866 14.1638 11.1097 14.1835 11.0315Z" fill="#020302"/>
<path d="M13.2389 5.21619C13.2922 5.24134 13.3273 5.26461 13.361 5.31367C13.5944 5.65337 13.911 7.66618 13.8483 8.06414C13.799 8.06329 13.7722 8.06212 13.7295 8.03652C13.4347 7.60684 13.1867 5.7601 13.2389 5.21619Z" fill="#020302"/>
<path d="M16.641 27.07C16.6884 27.0851 16.7025 27.0892 16.7317 27.1337C16.9089 27.4035 17.2317 29.3028 17.2575 29.7184C17.2657 29.8501 17.2567 29.963 17.2278 30.0911C17.2141 30.1 17.19 30.1051 17.1743 30.1102C17.1483 30.0955 17.1448 30.0953 17.1206 30.0716C16.8578 29.8144 16.6195 27.5393 16.641 27.07Z" fill="#020302"/>
<path d="M15.3001 17.5796C15.3071 17.5893 15.3154 17.5982 15.3212 17.6087C15.3822 17.7186 15.3885 17.964 15.4098 18.0961C15.5764 19.1317 15.8581 20.1444 16.0053 21.1833C16.0361 21.4007 16.0625 21.624 16.0678 21.8434C16.0734 22.0676 16.0581 22.2887 16.0822 22.5126C16.1287 22.9301 16.1822 23.3468 16.2427 23.7625C16.3308 24.349 16.6527 25.9016 16.532 26.3805C16.4961 26.3597 16.4641 26.3373 16.4419 26.3016C16.153 25.8365 15.9409 23.7815 15.9033 23.1818C15.8829 22.8556 15.9055 22.5117 15.8615 22.1894C15.7189 21.1446 15.0831 18.4944 15.3001 17.5796Z" fill="#020302"/>
<path d="M12.5364 5.37741C12.5972 5.3775 12.597 5.45589 12.6052 5.50288C12.6679 5.86257 12.6918 6.2316 12.7396 6.59394C12.8236 7.23048 12.9258 7.86581 13.0169 8.5015L16.1485 31.0012C16.2252 31.5593 16.3159 32.1122 16.4096 32.6676C16.4416 32.8571 16.4474 33.0589 16.5005 33.2432C16.5209 33.3141 16.5477 33.3821 16.6087 33.4271C16.7422 33.5259 18.382 33.2142 18.6852 33.1633C19.3522 33.0511 20.0155 32.919 20.6823 32.8059C22.8015 32.4522 24.9235 32.1164 27.0484 31.7985C27.4393 34.099 27.6693 36.4279 28.0345 38.7326C27.6546 38.8775 27.2363 38.9447 26.838 39.022C26.3438 39.1176 25.8491 39.2102 25.3538 39.3C23.3307 39.6592 21.3045 39.9994 19.2751 40.3207C16.7874 40.7205 14.2964 41.0982 11.8021 41.4536C10.6887 41.6131 9.56371 41.732 8.45557 41.9197C8.29803 41.2462 8.24103 40.5317 8.15725 39.8454C8.05626 39.0434 7.94883 38.2424 7.83493 37.4422L6.60416 28.2917L3.72168 6.74003C4.35655 6.66779 4.98846 6.54098 5.62069 6.44579L9.26547 5.8835C10.3533 5.69884 11.4436 5.53015 12.5364 5.37741Z" fill="#FEFEFE"/>
<path d="M26.7914 38.2363C26.8526 38.2267 26.8877 38.2181 26.9472 38.2414C26.9995 38.3015 27.0035 38.4024 27.0169 38.479C26.1094 38.8174 25.1168 38.9981 24.1664 39.1708C22.8912 39.4026 21.6113 39.5934 20.3344 39.8128C18.388 40.1474 16.4817 40.6712 14.4934 40.6826C14.4065 40.6742 14.3377 40.6573 14.2792 40.5893C14.2753 40.5297 14.2843 40.5233 14.316 40.4715C14.541 40.3442 16.4184 40.1988 16.8331 40.1494C17.2104 40.1021 17.5868 40.0492 17.9625 39.9906C19.7621 39.7207 21.5524 39.3988 23.3333 39.0248C23.8264 38.9168 24.318 38.8084 24.8078 38.686C25.4645 38.522 26.1225 38.3424 26.7914 38.2363Z" fill="#020302"/>
<path d="M11.7886 5.82556C11.8803 5.81549 12.011 5.78558 12.089 5.84874C12.2008 5.93916 12.2524 6.16624 12.2791 6.30433C12.349 6.66582 12.3712 7.04276 12.4083 7.40896L12.6088 9.434C12.8015 11.2805 13.014 13.1247 13.2463 14.9666C13.6623 18.2487 14.0271 21.5384 14.468 24.8171L15.3726 31.5025C15.4857 32.3383 15.6313 33.1719 15.7298 34.0093C16.6465 33.8922 17.56 33.719 18.4757 33.5888C21.1235 33.2227 23.7684 32.8368 26.4104 32.4312C26.7075 34.2396 27.0143 36.0565 27.2492 37.8741C26.8967 37.9809 26.5191 38.0388 26.1565 38.1065C25.4829 38.2298 24.8082 38.3464 24.1322 38.456C22.6229 38.7066 21.1181 38.9815 19.6057 39.2126L11.6663 40.5534C11.1932 40.6326 10.721 40.7231 10.2464 40.7923C9.95331 40.8351 9.65791 40.8605 9.36452 40.9015C9.21111 40.923 9.01988 40.9981 8.86881 40.9782C8.83202 40.9482 8.80718 40.9271 8.78382 40.8847C8.62228 40.5918 8.61159 39.8681 8.56837 39.5128C8.43329 38.4033 8.32328 37.2954 8.20594 36.1842L7.95757 34.0169C7.87783 33.2595 7.81449 32.5024 7.71912 31.7465C7.54324 30.2692 7.32704 28.7977 7.07054 27.3322C6.78717 25.6544 6.46782 23.9802 6.23751 22.2941C5.85046 19.4604 5.68623 16.598 5.27955 13.7679C5.09306 12.486 4.89023 11.2067 4.67104 9.93002C4.55492 9.25224 4.24019 7.92866 4.28874 7.31112C4.29535 7.22707 4.31247 7.15399 4.34148 7.07506C4.42063 7.00556 4.57113 6.97506 4.67355 6.95314C4.96231 6.89133 5.2614 6.85755 5.55312 6.80984C6.26568 6.68996 6.97948 6.57803 7.69455 6.47405L11.7886 5.82556Z" fill="#020302"/>
</svg>
